<?xml version="1.0" encoding="UTF-8"?>
<svg id="Layer_1" data-name="Layer 1" xmlns="http://www.w3.org/2000/svg" viewBox="0 0 500 500">
  <defs>
    <style>
      .cls-1 {
        fill: #9e0a0a;
        stroke: #c1272d;
        stroke-width: .5px;
      }

      .cls-1, .cls-2 {
        stroke-miterlimit: 10;
      }

      .cls-2 {
        fill: #f4d3e0;
        stroke: #8a1f1b;
        stroke-width: .25px;
      }
    </style>
  </defs>
  <ellipse class="cls-1" cx="250" cy="250" rx="200.44" ry="199.01"/>
  <g>
    <path class="cls-2" d="M324.73,247.69s-.03,0-.07.03v.1s-.03.07-.03.07c0,.14.41-.34.1-.21Z"/>
    <path class="cls-2" d="M391.45,43.38c.45-1.24,1.82-5.12,1.31-6.63l-1.37-1.37h-4.09l-2.72-1.34c-.45,0-2.72,1.34-2.72,0,0-.62-2.27-.41-2.75,0l-2.89,4.64-2.72,6.05v2.82c0,.69-.86,1.03-1.34.48l-1.37-1.55-2.78-3.71c-.86-.69-2.06-.62-2.68,0-.72.76-.62,2.27.52,3.02l-.52,6.5,2.75,5.47,2.72,3.92v4.26l-9.52,19.04-5.47,8.18-5.43,10.9c-2.06,2.51-4.09,4.98-6.15,7.49-1.13,2.03-2.27,4.09-3.4,6.12h-5.43l-2.44,1.34c-1.2,1.41-2.44,3.02-3.68,4.81-1.68,2.37-3.02,4.67-4.09,6.81-1.07,2.51-2.1,4.98-3.13,7.49l-5.74,4.06-2.72.72-2.06,2.68-7.46-4.74-1.37-4.09,10.9-2.72-2.44-1.55-4.37-3.92-4.09-2.72-2.72-3.75v-3.06l-2.75-6.81-4.06-5.47-2.75-2.92-5.43-1.17h-2.72l-5.47,2.75-5.43,4.09-5.47,2.72-4.09,2.72-6.26,3.27-.55,6.5,2.72,5.22-2.17,6.08,2.17,8.9,2.75-4.09,5.43,8.18,2.72-4.33,1.37,5.67,4.09,4.09,5.43,5.43-5.43,4.09-3.57,2.37c-2.65-1.48-6.46-1.44-9.93.38-.1.03-.21.1-.31.14l-3.85,3.16-.86.72-1.89,4.37v3.85l-4.09-1.34h-4.09l-4.09,4.06-4.09,4.71v4.85l-2.72,4.09-2.72,5.43-4.09,3.02-6.81,5.16-8.18,6.81,1.37-2.72-1.37-5.47-1.37-2.72,2.75-4.09-1.37-4.09v-6.81l-1.37-4.09,2.75-4.09,1.34-4.06-2.72-2.75,1.37-2.72,5.43-4.09,2.72-4.09v-2.72l-1.34-2.72-4.09-2.72,10.9-2.75-8.18-4.06-4.09-2.54v-9.73l-2.72-6.81-2.72-4.09-4.09-4.09-4.09-2.72-8.18-2.72h-5.43l-5.47,1.51-5.43,3.92-2.72,5.47,1.34-6.84v-4.06l-1.34-4.09-1.37-6.81v-31.35l1.37-6.81-1.37-5.43c-1.82-2.72-3.64-5.47-5.43-8.18.14-.58.82-3.3-.69-6.12-1.75-3.2-4.98-3.99-5.47-4.09.1,4.54.21,9.07.31,13.61l-5.05-3.4v4.09l2.72,4.09v4.09l2.34,3.71,3.09,4.43v8.18l-1.34,16.36-1.75,17.94-5.05,6.57c-1.1,1.41-2.41,3.44-3.4,6.12-.79,2.06-1.2,3.95-1.37,5.47l3.4,10.21-4.09,6.81-2.72,5.43,1.34,4.09,4.09,13.61,1.37,9.56-5.47,10.9-1.34,9.52,5.43,6.81,4.09,8.18,1.37,13.61-1.68,10.66-5.19,13.37-5.4,29.08-2.72,20.42-1.37,16.36-2.13,19.04v39.53h13.03l22.48,44.68,6.12,8.21v4.3l-12.24,25.85h12.24l6.81-2.72,1.37-2.72,1.37-6.81c1.34-6.81,2.72-4.09,2.72-4.09l1.37,8.18h2.72l2.72-5.47s6.81,0,8.18-2.72c1.34-2.72,5.43-8.18,5.43-8.18l4.09-8.15,13.61,12.24s5.47-13.61,9.56-24.51c4.09-10.9,4.09-9.52,4.09-9.52l10.86,14.95,5.47,10.9,4.37,6.22v6.5l1.07,8.25,2.75,6.29,11.96,3.99c.65.21,1.65.48,2.92.41,1.65-.07,2.85-.65,3.51-1h1.34s.69.69-.69-3.64c-1.34-4.3-2.72-6.57-2.72-6.57l-23.13-54.48-5.47-13.61,13.61-27.26,6.81-14.44,8.18-15.5,10.9-16.36,6.81-9.52c.24,2.03.45,4.09.69,6.12.93,3.64,1.82,7.25,2.72,10.9.93,3.16,1.82,6.36,2.72,9.52.93,3.64,1.82,7.29,2.75,10.9.89,4.54,1.79,9.11,2.72,13.65,1.37,4.54,2.72,9.07,4.09,13.61.89,6.81,1.82,13.61,2.72,20.42,1.13,3.82,1.58,9.14,1.13,14.13.82,6.12,0,13.75-.07,19.21v4.19l-1.07,7.42c-.21,1.58-.31,3.16-.69,4.71-2.03,8.9-.69,3.44-2.03,8.9-1.37,5.43-7.63,11.07-6.81,13.61.45,1.44,4.54,2.13,8.83,2.44,4.33.31,8.87.28,10.21.28,3.16-1.07,6.81-1.34,6.81-1.34.03,0,1.07-5.47,1.37-8.18.28-2.23,20.93-2.92,21.24-3.13l-2.39-11.37-3.44-6.87c-.5.3-.96-.5-1.37-1.86-.91-2.96-1.64-8.55-2.27-11-.49-1.89-.84-3.26-.84-3.26-.02-.14.12-3.94.16-7.58.03-2.61,0-5.14-.16-6.17,0,0-.14-10.19-.58-12.95s-3.09-28.08-2.86-31.73l-1.41-9.92-2.68-18.75-2.78-16.02c-8.15-26.67-12.13-45.3-14.23-50.05-.62-1.41-1.24-4.61-2.72-10.9-.17-.69-.89-1.55-.52-2.61.07-.21.07-.96,0-1.37-.1-.62-.03-2.13-.03-2.65v-.17h.03c.03-.93,0-3.95,0-3.99-.07-2.17.48-4.23.34-5.81-.03,0-.07-.58-.07-.76.03.07.03.21.07.48.17-6.36.31-13.03.17-13.1.89-9.52,1.79-19.04,2.72-28.6l2.03-10.21c.24-5.67.45-11.34.69-17.01,3.2.55,6.26-.89,7.49-3.4,1.24-2.51.17-5.05,0-5.47v-2.72h4.09l6.81-4.09,8.18-12.24,1.34-6.81v-9.56l4.09-8.15,9.56-13.65,9.52-12.24,7.49-7.49-8.18-9.52.69-2.06,4.09-5.43,4.23-7.39,2.75-4.09,1.34-4.09c.48-1.41.55-1.72,1.37-4.09,0-.28-.14-.79,0-1.34.48-1.92-2.92-3.64-4.02-1.55ZM210.27,421.86v2.23l-9.56,12.24-5.43-8.15-2.75-6.81-1.58-4.09.24-8.18-2.72-10.9,5.43,5.47,4.85,3.47,1.96,1.68,9.56.28,4.98-1.37c5.02-1.34,5.88,0,5.88,0l-10.86,14.13ZM278.26,253.61l-.03.03-3.71,11.72v.03c-.82,4.09-1.65,8.18-2.44,12.24-.03.03-.03.07-.03.1-1.1,4.23-2.23,8.49-3.33,12.72-.03.1-.07.24-.14.31l-8.04,14.75c-.03.07-.07.14-.07.21l-5.4,14.44s-.03.1-.07.14l-9.45,19.28c-.55,1.07-2.13,1.03-2.61-.1l-34.03-82.43c-.1-.31-.14-.62-.03-.93l4.67-17.43c.03-.17.1-.31.21-.45l2.89-4.19c.28-.38.72-.62,1.17-.62h8.46c.89-.38,1.72-.72,2.65-1.1l1.89-1.92c.28-.24.41-.58.45-.93.03-1.2.07-2.41.14-3.61,0-.52.27-.96.72-1.2l3.54-1.96c.21-.1.45-.17.69-.17h1.48c.34,0,.65-.14.93-.34l2.27-2.03c.27-.24.62-.34.93-.34h2.06c.1,0,.17,0,.28.03,1.03.21,2.1.38,3.13.62.1,0,.21.03.28.03h2.61c.52-.03,1.44-.14,2.37-.69,1.82-1.1,2.27-2.99,2.37-3.37l.28-1.07c.17-.65.72-1.1,1.37-1.1h1.79c.17,0,.34-.03.55-.1l1.82-.76c.58-.24,1.27-.07,1.68.45l6.05,8.11c.07.07.1.14.14.21l2.72,5.33.03.03s2.96,9.21,2.82,9.38c.14,0,1.27,2.34,1.27,2.34.07,1,.65,2.13,1.03,3.02.07.1.1.24.1.34l1.07,6.53.17,1.13.1.76.28,1.82.03.28.03.14-.1.31Z"/>
  </g>
</svg>